<?xml version="1.0" encoding="UTF-8" standalone="no"?><!DOCTYPE svg PUBLIC "-//W3C//DTD SVG 1.1//EN" "http://www.w3.org/Graphics/SVG/1.1/DTD/svg11.dtd"><svg width="100%" height="100%" viewBox="0 0 938 282" version="1.1" xmlns="http://www.w3.org/2000/svg" xmlns:xlink="http://www.w3.org/1999/xlink" xml:space="preserve" xmlns:serif="http://www.serif.com/" style="fill-rule:evenodd;clip-rule:evenodd;stroke-linejoin:round;stroke-miterlimit:2;"><g><g><path d="M41.726,170.162l0,-54.308c0,-9.406 2.885,-17.057 8.529,-22.826c5.769,-5.644 13.294,-8.529 22.826,-8.529c9.407,0 16.556,2.76 21.573,8.278c5.016,5.644 7.525,13.546 7.525,23.955l-0,53.43l-24.833,-0l-0,-53.43c-0,-5.016 -1.882,-7.65 -5.519,-7.65c-3.512,-0 -5.268,2.634 -5.268,7.65l0,53.43l-24.833,-0Z" style="fill:#fff;fill-rule:nonzero;"/></g><g><path d="M144.554,107.828c8.654,-0 16.054,3.135 22.325,9.281c6.146,6.271 9.281,13.796 9.281,22.45c0,8.779 -3.135,16.305 -9.406,22.576c-6.271,6.145 -13.922,9.281 -22.701,9.281c-8.905,-0 -16.43,-3.136 -22.701,-9.407c-6.271,-6.145 -9.532,-13.671 -9.532,-22.45c-0,-8.905 3.261,-16.43 9.532,-22.576c6.271,-6.145 14.047,-9.155 23.202,-9.155Zm-0.627,22.575c-2.383,0 -4.515,0.878 -6.271,2.634c-1.63,1.881 -2.508,4.014 -2.508,6.522c-0,2.634 0.878,4.766 2.634,6.522c1.756,1.756 3.762,2.759 6.145,2.759c2.509,0 4.641,-1.003 6.271,-2.759c1.756,-1.756 2.634,-3.888 2.634,-6.522c0,-2.508 -0.878,-4.641 -2.508,-6.522c-1.756,-1.756 -3.888,-2.634 -6.397,-2.634Z" style="fill:#fff;fill-rule:nonzero;"/></g><g><path d="M207.214,86.506l-0,50.043c-0,8.152 2.884,12.291 8.779,12.291c2.509,0 4.641,-0.878 6.271,-2.634c1.756,-1.63 2.634,-3.762 2.634,-6.145c-0,-2.509 -0.753,-4.516 -2.383,-6.271c-1.63,-1.631 -3.637,-2.509 -6.02,-2.509c-1.756,0 -3.637,0.753 -5.77,2.258l0,-25.335c2.634,-0.251 4.766,-0.376 6.146,-0.376c8.529,-0 15.928,3.135 22.074,9.406c6.146,6.146 9.281,13.671 9.281,22.325c0,9.03 -3.135,16.555 -9.406,22.701c-6.271,6.02 -13.922,9.156 -23.078,9.156c-4.515,-0 -9.03,-1.004 -13.294,-3.01c-4.39,-2.007 -7.902,-4.766 -10.786,-8.153c-4.892,-5.769 -7.4,-13.42 -7.4,-22.826l-0,-50.921l22.952,0Z" style="fill:#fff;fill-rule:nonzero;"/></g><g><path d="M281.164,109.082l-0,61.08l-22.952,-0l-0,-61.08l22.952,-0Zm-11.414,-27.216c3.136,-0 5.77,1.128 8.027,3.26c2.258,2.133 3.387,4.766 3.387,7.777c-0,3.135 -1.004,5.769 -3.136,7.776c-2.132,2.132 -4.891,3.135 -8.278,3.135c-3.386,0 -6.145,-1.003 -8.277,-3.135c-2.133,-2.007 -3.136,-4.641 -3.136,-7.776c0,-3.011 1.129,-5.644 3.386,-7.777c2.258,-2.132 4.892,-3.26 8.027,-3.26Z" style="fill:#fff;fill-rule:nonzero;"/></g><g><rect x="294.589" y="86.506" width="22.952" height="83.655" style="fill:#fff;"/></g><g><path d="M353.855,109.082l-0,61.08l-22.952,-0l-0,-61.08l22.952,-0Zm-11.414,-27.216c3.136,-0 5.77,1.128 8.027,3.26c2.258,2.133 3.387,4.766 3.387,7.777c-0,3.135 -1.004,5.769 -3.136,7.776c-2.132,2.132 -4.891,3.135 -8.278,3.135c-3.386,0 -6.145,-1.003 -8.277,-3.135c-2.132,-2.007 -3.136,-4.641 -3.136,-7.776c0,-3.011 1.129,-5.644 3.387,-7.777c2.257,-2.132 4.891,-3.26 8.026,-3.26Z" style="fill:#fff;fill-rule:nonzero;"/></g><g><path d="M387.723,86.506l0,23.454l10.285,-0l-0,24.206l-10.285,-0c0,4.891 0.753,8.152 2.258,10.033c1.505,1.882 4.39,2.76 8.403,2.76l0,24.08l-2.634,0c-5.142,0 -10.033,-1.128 -14.674,-3.511c-4.515,-2.509 -8.278,-5.77 -11.037,-9.909c-3.512,-5.267 -5.268,-12.165 -5.268,-20.945l0,-50.168l22.952,0Z" style="fill:#fff;fill-rule:nonzero;"/></g><g><path d="M417.132,196.876l-0,-19.816c3.135,1.254 5.895,1.881 8.152,1.881c7.4,-0 12.291,-4.139 14.424,-12.542c-4.014,2.383 -7.902,3.637 -11.665,3.637c-5.769,0 -10.409,-2.132 -14.047,-6.396c-3.637,-4.265 -5.518,-9.658 -5.518,-16.18l-0,-38.378l22.826,-0l0,32.86c0,3.637 1.631,5.393 4.641,5.393c2.885,-0 4.264,-2.007 4.264,-5.895l0,-32.358l22.952,-0l0,54.558c0,10.159 -2.885,18.311 -8.528,24.582c-6.899,7.4 -15.176,11.162 -24.834,11.162c-4.264,0 -8.403,-0.877 -12.667,-2.508Z" style="fill:#fff;fill-rule:nonzero;"/></g><g><path d="M514.601,110.587l0,59.575l-24.833,-0l-0,-59.575l-19.064,-0l-0,-24.081l62.836,0l-0,24.081l-18.939,-0Z" style="fill:#fff;fill-rule:nonzero;"/></g><g><path d="M574.507,108.455l-0,24.582c-1.505,-1.003 -3.01,-1.38 -4.264,-1.38c-4.265,0 -6.271,3.136 -6.271,9.532l-0,28.973l-22.952,-0l-0,-33.362c-0,-8.78 2.383,-15.803 7.274,-21.071c4.766,-5.268 11.288,-7.901 19.315,-7.901c1.756,-0 4.139,0.25 6.898,0.627Z" style="fill:#fff;fill-rule:nonzero;"/></g><g><path d="M615.243,147.21l0,23.704c-1.881,0.376 -3.637,0.502 -5.142,0.502c-9.281,-0 -16.932,-3.01 -22.952,-9.031c-6.145,-6.02 -9.281,-13.67 -9.281,-22.701c0,-8.905 3.136,-16.43 9.281,-22.575c6.271,-6.146 13.797,-9.281 22.576,-9.281c9.908,-0 17.684,2.884 23.454,8.779c5.643,5.769 8.528,13.545 8.528,23.579l0,29.976l-22.952,-0l0,-28.346c0,-3.135 -0.752,-5.769 -2.383,-7.65c-1.505,-1.881 -3.637,-2.885 -6.271,-2.885c-2.383,0 -4.515,0.878 -6.271,2.634c-1.756,1.756 -2.634,3.888 -2.634,6.271c0,2.508 0.753,4.641 2.383,6.271c1.631,1.631 3.638,2.383 6.021,2.383c2.006,0 3.888,-0.502 5.643,-1.63Z" style="fill:#fff;fill-rule:nonzero;"/></g><g><path d="M692.49,142.067l22.701,-0.878c-0.627,8.78 -3.888,16.054 -9.783,21.698c-6.02,5.769 -13.169,8.529 -21.698,8.529c-8.904,-0 -16.555,-3.136 -22.701,-9.281c-6.145,-6.271 -9.281,-13.922 -9.281,-23.078c0,-8.528 3.136,-15.928 9.407,-22.074c6.145,-6.145 13.671,-9.155 22.45,-9.155c7.651,-0 14.298,2.383 20.193,7.274c5.769,4.766 9.406,10.912 10.911,18.437l-23.202,0.752c-2.007,-2.508 -4.516,-3.888 -7.651,-3.888c-2.634,0 -4.766,0.878 -6.397,2.634c-1.63,1.631 -2.508,3.888 -2.508,6.397c0,2.759 0.878,4.891 2.634,6.772c1.756,1.756 4.013,2.634 6.647,2.634c3.888,0 6.647,-2.258 8.278,-6.773Z" style="fill:#fff;fill-rule:nonzero;"/></g><g><path d="M748.121,86.506l0,83.656l-22.952,-0l0,-83.656l22.952,0Zm35.118,22.576l-11.288,22.199l16.681,38.881l-25.335,-0l-14.298,-39.884l10.41,-21.196l23.83,-0Z" style="fill:#fff;fill-rule:nonzero;"/></g><g><path d="M852.855,143.322l-34.742,-0c-0.501,-1.756 -0.752,-3.387 -0.752,-4.766c-0,-2.133 0.251,-4.139 1.003,-6.021l11.664,0c-0.752,-4.515 -3.386,-6.772 -7.65,-6.772c-2.885,-0 -5.142,1.128 -7.024,3.637c-1.756,2.383 -2.634,5.518 -2.634,9.281c0,4.013 0.878,7.149 2.634,9.657c1.756,2.383 4.014,3.638 6.773,3.638c2.257,-0 4.515,-1.129 6.647,-3.387l13.044,15.678c-6.146,4.766 -12.918,7.149 -20.318,7.149c-9.03,-0 -16.681,-3.01 -22.827,-9.156c-6.145,-6.02 -9.281,-13.671 -9.281,-22.576c0,-8.905 3.136,-16.555 9.407,-22.701c6.145,-6.145 13.796,-9.281 22.952,-9.281c8.779,0 16.304,3.01 22.325,9.03c6.02,6.021 9.03,13.546 9.03,22.325c-0,0.878 -0.126,2.383 -0.251,4.265Z" style="fill:#fff;fill-rule:nonzero;"/></g><g><path d="M895.774,108.455l-0,24.582c-1.505,-1.003 -3.01,-1.38 -4.264,-1.38c-4.265,0 -6.272,3.136 -6.272,9.532l0,28.973l-22.951,-0l-0,-33.362c-0,-8.78 2.383,-15.803 7.274,-21.071c4.766,-5.268 11.288,-7.901 19.315,-7.901c1.756,-0 4.139,0.25 6.898,0.627Z" style="fill:#fff;fill-rule:nonzero;"/></g></g></svg>